<?xml version="1.0" encoding="UTF-8"?>
<svg width="501px" height="325px" viewBox="0 0 501 325" version="1.1" xmlns="http://www.w3.org/2000/svg" xmlns:xlink="http://www.w3.org/1999/xlink">
    <title>Frame</title>
    <defs>
        <path d="M0,0 L500,0 L500,325 L0,325 L0,0 Z" id="path-1"></path>
    </defs>
    <g id="Frame" stroke="none" fill="none" transform="translate(1, 0)" xlink:href="#path-1" fill-rule="nonzero">
        <path d="M495.34335,102.925117 C487.764756,44.1107644 437.746035,0 378.633001,0 L120.455564,0 C61.3425298,0 11.323809,44.1107644 3.74521489,102.925117 C-1.81242076,142.472699 -1.81242076,182.527301 3.74521489,222.074883 C11.323809,280.889236 61.3425298,325 120.455564,325 L378.633001,325 C438.251275,325 488.269996,280.889236 495.84859,221.567863 C500.900986,182.527301 500.900986,142.472699 495.34335,102.925117 Z M363.475813,200.780031 C359.433896,221.567863 341.245271,236.271451 320.025207,236.271451 C281.626997,236.271451 217.461568,236.271451 179.063358,236.271451 C157.843294,236.271451 139.654669,221.567863 135.612752,200.780031 C130.560356,175.429017 130.055116,149.570983 135.612752,124.219969 C139.654669,103.432137 157.843294,88.7285491 178.558118,88.7285491 C217.461568,88.7285491 281.626997,88.7285491 320.025207,88.7285491 C341.245271,88.7285491 359.433896,103.432137 363.475813,124.219969 C368.528209,149.570983 368.528209,175.429017 363.475813,200.780031 Z" id="Shape" fill="color(display-p3 1.000 1.000 1.000)" style="mix-blend-mode: lighten;"></path>
    </g>
</svg>